<svg width="80" height="66" viewBox="0 0 80 66" fill="#FFF" xmlns="http://www.w3.org/2000/svg">
<path d="M40 22.9091L28.5455 11.4545L40 0L51.4545 11.4545L40 22.9091ZM0 65.5455V51C0 49.2424 0.621212 47.7424 1.86364 46.5C3.10606 45.2576 4.60606 44.6364 6.36364 44.6364H19.1818C20.2121 44.6364 21.197 44.8939 22.1364 45.4091C23.0758 45.9242 23.8788 46.6364 24.5455 47.5455C26.303 50.0909 28.5455 52.0606 31.2727 53.4545C34 54.8485 36.9091 55.5455 40 55.5455C43.0909 55.5455 46 54.8485 48.7273 53.4545C51.4545 52.0606 53.7273 50.0909 55.5455 47.5455C56.2121 46.6364 57 45.9242 57.9091 45.4091C58.8182 44.8939 59.7879 44.6364 60.8182 44.6364H73.6364C75.3939 44.6364 76.8939 45.2576 78.1364 46.5C79.3788 47.7424 80 49.2424 80 51V65.5455H56.3636V54.7273C54.1818 56.7273 51.6818 58.2727 48.8636 59.3636C46.0455 60.4545 43.0909 61 40 61C36.9091 61 33.9697 60.4545 31.1818 59.3636C28.3939 58.2727 25.8788 56.7273 23.6364 54.7273V65.5455H0ZM10.9091 38.2727C8.18182 38.2727 5.83333 37.2879 3.86364 35.3182C1.89394 33.3485 0.909091 31 0.909091 28.2727C0.909091 25.4848 1.89394 23.1212 3.86364 21.1818C5.83333 19.2424 8.18182 18.2727 10.9091 18.2727C13.697 18.2727 16.0606 19.2424 18 21.1818C19.9394 23.1212 20.9091 25.4848 20.9091 28.2727C20.9091 31 19.9394 33.3485 18 35.3182C16.0606 37.2879 13.697 38.2727 10.9091 38.2727ZM69.0909 38.2727C66.3636 38.2727 64.0152 37.2879 62.0455 35.3182C60.0758 33.3485 59.0909 31 59.0909 28.2727C59.0909 25.4848 60.0758 23.1212 62.0455 21.1818C64.0152 19.2424 66.3636 18.2727 69.0909 18.2727C71.8788 18.2727 74.2424 19.2424 76.1818 21.1818C78.1212 23.1212 79.0909 25.4848 79.0909 28.2727C79.0909 31 78.1212 33.3485 76.1818 35.3182C74.2424 37.2879 71.8788 38.2727 69.0909 38.2727Z" fill="black"/>
</svg>
